<svg width="48" height="48" viewBox="0 0 48 48" fill="none" xmlns="http://www.w3.org/2000/svg">
<rect width="48" height="48" rx="12" fill="#181A1C"/>
<path d="M31 21.5C31.5523 21.5 32 21.9477 32 22.5V26C32 28.7614 29.7614 31 27 31H25V34C25 34.5523 24.5523 35 24 35C23.4477 35 23 34.5523 23 34V31H21C18.2386 31 16 28.7614 16 26V22.5C16 21.9477 16.4477 21.5 17 21.5C17.5523 21.5 18 21.9477 18 22.5V26C18 27.6569 19.3431 29 21 29H27C28.6569 29 30 27.6569 30 26V22.5C30 21.9477 30.4477 21.5 31 21.5ZM24 13C26.2091 13 28 14.7909 28 17V25C28 26.1046 27.1046 27 26 27H22C20.8954 27 20 26.1046 20 25V17C20 14.7909 21.7909 13 24 13Z" fill="white"/>
</svg>
