<svg width="48" height="48" viewBox="0 0 48 48" fill="none" xmlns="http://www.w3.org/2000/svg">
<rect width="48" height="48" rx="12" fill="#181A1C"/>
<path fill-rule="evenodd" clip-rule="evenodd" d="M26.6649 13L26.5 13H21.5L21.3352 13C19.6332 12.9998 18.5908 12.9997 17.7052 13.218C14.9985 13.8851 12.8851 15.9985 12.218 18.7052C11.9997 19.5908 11.9998 20.6332 12 22.3352L12 22.5L12 22.6649C11.9998 24.3669 11.9997 25.4092 12.218 26.2949C12.8851 29.0016 14.9985 31.1149 17.7052 31.7821C18.5908 32.0004 19.6332 32.0003 21.3352 32L21.5 32H24.3334L29.0001 35.5C29.8241 36.118 31.0001 35.5301 31.0001 34.5V31.5712C33.3649 30.7356 35.1741 28.7617 35.7821 26.2949C36.0004 25.4092 36.0003 24.3669 36 22.6649L36 22.5L36 22.3352C36.0003 20.6332 36.0004 19.5908 35.7821 18.7052C35.115 15.9985 33.0016 13.8851 30.2949 13.218C29.4092 12.9997 28.3669 12.9998 26.6649 13ZM26.5 15C28.4188 15 29.1976 15.0074 29.8163 15.1598C31.8012 15.6491 33.351 17.1989 33.8402 19.1838C33.9927 19.8025 34 20.5813 34 22.5C34 24.4188 33.9927 25.1976 33.8402 25.8163C33.351 27.8012 31.8012 29.351 29.8163 29.8402C29.1976 29.9927 28.4188 30 26.5 30H21.5C19.5813 30 18.8025 29.9927 18.1838 29.8402C16.1989 29.351 14.6491 27.8012 14.1598 25.8163C14.0074 25.1976 14 24.4188 14 22.5C14 20.5813 14.0074 19.8025 14.1598 19.1838C14.6491 17.1989 16.1989 15.6491 18.1838 15.1598C18.8025 15.0074 19.5813 15 21.5 15H26.5ZM21.3969 21.5575C21.1524 21.0623 20.5527 20.8591 20.0575 21.1036C19.5623 21.3481 19.3591 21.9478 19.6036 22.443C20.0161 23.2783 20.6538 23.9818 21.4447 24.4741C22.2356 24.9665 23.1484 25.228 24.08 25.2293C25.0117 25.2305 25.9252 24.9715 26.7174 24.4814C27.5097 23.9912 28.1493 23.2894 28.5641 22.4552C28.8099 21.9607 28.6084 21.3605 28.1138 21.1146C27.6193 20.8687 27.0191 21.0703 26.7732 21.5648C26.5243 22.0654 26.1406 22.4864 25.6652 22.7805C25.1899 23.0746 24.6418 23.23 24.0828 23.2293C23.5238 23.2285 22.9761 23.0716 22.5016 22.7762C22.027 22.4808 21.6444 22.0587 21.3969 21.5575Z" fill="white"/>
</svg>
