<svg width="48" height="48" viewBox="0 0 48 48" fill="none" xmlns="http://www.w3.org/2000/svg">
<rect width="48" height="48" rx="12" fill="#F04438"/>
<path fill-rule="evenodd" clip-rule="evenodd" d="M13.7071 14.2929C13.3166 13.9024 12.6834 13.9024 12.2929 14.2929C11.9024 14.6834 11.9024 15.3166 12.2929 15.7071L30.2929 33.7071C30.6834 34.0976 31.3166 34.0976 31.7071 33.7071C32.0976 33.3166 32.0976 32.6834 31.7071 32.2929L29.9999 30.5857V27.7143L34.4186 30.8705C35.0805 31.3433 35.9999 30.8702 35.9999 30.0568V17.9432C35.9999 17.1298 35.0805 16.6567 34.4186 17.1294L29.9563 20.3168C29.954 20.2841 29.9515 20.2517 29.9489 20.2198C29.8961 19.5743 29.7839 18.9959 29.5094 18.457C29.078 17.6103 28.3896 16.9219 27.5428 16.4905C27.004 16.2159 26.4256 16.1037 25.7801 16.051C25.1556 16 24.3863 16 23.442 16H23.442L15.4142 16L13.7071 14.2929ZM17.4142 18L27.9999 28.5857V22.6C27.9999 21.6034 27.9991 20.9161 27.9555 20.3826C27.9129 19.8608 27.8343 19.5749 27.7274 19.365C27.4877 18.8946 27.1053 18.5122 26.6349 18.2725C26.425 18.1655 26.139 18.087 25.6172 18.0444C25.0838 18.0008 24.3965 18 23.3999 18H17.4142ZM18.6 29.9995C17.6034 29.9995 16.9161 29.9987 16.3826 29.9551C15.8608 29.9125 15.5749 29.834 15.365 29.727C14.8946 29.4873 14.5122 29.1049 14.2725 28.6345C14.1655 28.4246 14.087 28.1387 14.0444 27.6169C14.0008 27.0834 14 26.3961 14 25.3995L14 20.9995C14 20.4472 13.5523 19.9995 13 19.9995C12.4477 19.9995 12 20.4472 12 20.9995V25.4416V25.4417C12 26.386 12 27.1552 12.051 27.7797C12.1037 28.4252 12.2159 29.0037 12.4905 29.5425C12.9219 30.3892 13.6103 31.0776 14.457 31.509C14.9959 31.7836 15.5743 31.8958 16.2198 31.9485C16.8443 31.9995 17.6135 31.9995 18.5578 31.9995H18.5579H23C23.5523 31.9995 24 31.5518 24 30.9995C24 30.4472 23.5523 29.9995 23 29.9995H18.6Z" fill="white"/>
</svg>
