<svg width="48" height="48" viewBox="0 0 48 48" fill="none" xmlns="http://www.w3.org/2000/svg">
<rect width="48" height="48" rx="12" fill="#F04438"/>
<path fill-rule="evenodd" clip-rule="evenodd" d="M19.0841 15.0001C19.4554 13.4647 21.0016 12.4291 22.6286 12.7777L30.6286 14.492C32.0118 14.7884 33 16.0108 33 17.4254V18.0001V30.0001V30.5749C33 31.9895 32.0118 33.2119 30.6286 33.5083L22.6286 35.2226C21.0016 35.5712 19.4554 34.5356 19.0841 33.0001H18C16.3431 33.0001 15 31.657 15 30.0001V23.5001V23.0001V18.0001C15 16.3433 16.3431 15.0001 18 15.0001H19.0841ZM19 17.0001H18C17.4477 17.0001 17 17.4479 17 18.0001V23.0001V23.5001V30.0001C17 30.5524 17.4477 31.0001 18 31.0001H19V17.0001ZM23 24.0001C23 24.5524 22.5523 25.0001 22 25.0001C21.4477 25.0001 21 24.5524 21 24.0001C21 23.4479 21.4477 23.0001 22 23.0001C22.5523 23.0001 23 23.4479 23 24.0001Z" fill="white"/>
</svg>
