<svg xmlns="http://www.w3.org/2000/svg" width="64" height="64" viewBox="0 0 64 64" aria-hidden="true">
  <!-- Red rounded square background -->
  <rect x="2" y="2" width="60" height="60" rx="12" ry="12" fill="#D32F2F" />

  <!-- Microphone and slash in white -->
  <g fill="none" stroke="#FFFFFF" stroke-width="3.5" stroke-linecap="round" stroke-linejoin="round">
    <!-- Mic head -->
    <path d="M32 20c3.6 0 6.5 2.9 6.5 6.5v3.5c0 3.6-2.9 6.5-6.5 6.5s-6.5-2.9-6.5-6.5v-3.5C25.5 22.9 28.4 20 32 20z"/>
    
    <!-- Mic stem -->
    <path d="M32 36v6.5"/>
    
    <!-- Base -->
    <path d="M24.5 46.5c1.8 1.2 4.1 1.9 7.5 1.9s5.7-0.7 7.5-1.9"/>
    
    <!-- Side connector -->
    <path d="M22 30.5c0 6.6 5.4 12 12 12"/>
    
    <!-- Slash -->
    <path d="M20 18 L44 46" stroke="#FFFFFF" stroke-width="4" stroke-linecap="round"/>
  </g>
</svg>
