<svg width="48" height="48" viewBox="0 0 48 48" fill="none" xmlns="http://www.w3.org/2000/svg">
<rect width="48" height="48" rx="12" fill="#181A1C"/>
<path d="M28.4424 14C29.3866 14 30.1558 13.9998 30.7803 14.0508C31.4257 14.1035 32.0042 14.2157 32.543 14.4902C33.3897 14.9217 34.0783 15.6103 34.5098 16.457C34.7843 16.9958 34.8965 17.5743 34.9492 18.2197C35.0002 18.8442 35 19.6134 35 20.5576V23.4424C35 24.3866 35.0002 25.1558 34.9492 25.7803C34.8965 26.4257 34.7843 27.0042 34.5098 27.543C34.0783 28.3897 33.3897 29.0783 32.543 29.5098C32.0042 29.7843 31.4257 29.8965 30.7803 29.9492C30.1558 30.0002 29.3866 30 28.4424 30H26.7998L29.0898 32.8623C29.4564 33.3205 29.1307 33.9997 28.5439 34H19.4561C18.8693 33.9997 18.5436 33.3205 18.9102 32.8623L21.2002 30H19.5576C18.6134 30 17.8442 30.0002 17.2197 29.9492C16.5743 29.8965 15.9958 29.7843 15.457 29.5098C14.6103 29.0783 13.9217 28.3897 13.4902 27.543C13.2157 27.0042 13.1035 26.4257 13.0508 25.7803C12.9998 25.1558 13 24.3866 13 23.4424V20.5576C13 19.6134 12.9998 18.8442 13.0508 18.2197C13.1035 17.5743 13.2157 16.9958 13.4902 16.457C13.9217 15.6103 14.6103 14.9217 15.457 14.4902C15.9958 14.2157 16.5743 14.1035 17.2197 14.0508C17.8442 13.9998 18.6134 14 19.5576 14H28.4424ZM19.5996 16C18.6034 16 17.9162 16.0004 17.3828 16.0439C16.8612 16.0866 16.5751 16.1656 16.3652 16.2725C15.8948 16.5121 15.5121 16.8948 15.2725 17.3652C15.1656 17.5751 15.0866 17.8612 15.0439 18.3828C15.0004 18.9162 15 19.6034 15 20.5996V23.4004C15 24.3966 15.0004 25.0838 15.0439 25.6172C15.0866 26.1388 15.1656 26.4249 15.2725 26.6348C15.5121 27.1052 15.8948 27.4879 16.3652 27.7275C16.5751 27.8344 16.8612 27.9134 17.3828 27.9561C17.9162 27.9996 18.6034 28 19.5996 28H28.4004C29.3966 28 30.0838 27.9996 30.6172 27.9561C31.1388 27.9134 31.4249 27.8344 31.6348 27.7275C32.1052 27.4879 32.4879 27.1052 32.7275 26.6348C32.8344 26.4249 32.9134 26.1388 32.9561 25.6172C32.9996 25.0838 33 24.3966 33 23.4004V20.5996C33 19.6034 32.9996 18.9162 32.9561 18.3828C32.9134 17.8612 32.8344 17.5751 32.7275 17.3652C32.4879 16.8948 32.1052 16.5121 31.6348 16.2725C31.4249 16.1656 31.1388 16.0866 30.6172 16.0439C30.0838 16.0004 29.3966 16 28.4004 16H19.5996Z" fill="white"/>
</svg>
