<svg width="48" height="48" viewBox="0 0 48 48" fill="none" xmlns="http://www.w3.org/2000/svg">
<rect width="48" height="48" rx="12" fill="#181A1C"/>
<path fill-rule="evenodd" clip-rule="evenodd" d="M23.4422 16H18.5579H18.5578C17.6135 16 16.8443 16 16.2198 16.051C15.5743 16.1037 14.9959 16.2159 14.457 16.4905C13.6103 16.9219 12.9219 17.6103 12.4905 18.457C12.2159 18.9959 12.1037 19.5743 12.051 20.2198C12 20.8443 12 21.6135 12 22.5578V22.5579V25.4422V25.4422C12 26.3865 12 27.1557 12.051 27.7802C12.1037 28.4257 12.2159 29.0041 12.4905 29.543C12.9219 30.3897 13.6103 31.0781 14.457 31.5095C14.9959 31.7841 15.5743 31.8963 16.2198 31.949C16.8443 32 17.6135 32 18.5578 32H18.5579H23.4421H23.4422C24.3865 32 25.1557 32 25.7802 31.949C26.4257 31.8963 27.0041 31.7841 27.543 31.5095C28.3897 31.0781 29.0781 30.3897 29.5095 29.543C29.7841 29.0041 29.8963 28.4257 29.949 27.7802C29.9516 27.7482 29.9541 27.7159 29.9564 27.6831L34.4188 30.8705C35.0806 31.3433 36 30.8702 36 30.0568V17.9432C36 17.1298 35.0806 16.6567 34.4188 17.1294L29.9564 20.3168C29.9541 20.2841 29.9516 20.2517 29.949 20.2198C29.8963 19.5743 29.7841 18.9959 29.5095 18.457C29.0781 17.6103 28.3897 16.9219 27.543 16.4905C27.0041 16.2159 26.4257 16.1037 25.7802 16.051C25.1557 16 24.3865 16 23.4422 16H23.4422ZM15.365 18.2725C15.5749 18.1655 15.8608 18.087 16.3826 18.0444C16.9161 18.0008 17.6034 18 18.6 18H23.4C24.3966 18 25.0839 18.0008 25.6174 18.0444C26.1392 18.087 26.4251 18.1655 26.635 18.2725C27.1054 18.5122 27.4878 18.8946 27.7275 19.365C27.8345 19.5749 27.913 19.8608 27.9556 20.3826C27.9992 20.9161 28 21.6034 28 22.6V25.4C28 26.3966 27.9992 27.0839 27.9556 27.6174C27.913 28.1392 27.8345 28.4251 27.7275 28.635C27.4878 29.1054 27.1054 29.4878 26.635 29.7275C26.4251 29.8345 26.1392 29.913 25.6174 29.9556C25.0839 29.9992 24.3966 30 23.4 30H18.6C17.6034 30 16.9161 29.9992 16.3826 29.9556C15.8608 29.913 15.5749 29.8345 15.365 29.7275C14.8946 29.4878 14.5122 29.1054 14.2725 28.635C14.1655 28.4251 14.087 28.1392 14.0444 27.6174C14.0008 27.0839 14 26.3966 14 25.4V22.6C14 21.6034 14.0008 20.9161 14.0444 20.3826C14.087 19.8608 14.1655 19.5749 14.2725 19.365C14.5122 18.8946 14.8946 18.5122 15.365 18.2725Z" fill="white"/>
</svg>
